<svg width="803" height="826" viewBox="0 0 803 826" fill="none" xmlns="http://www.w3.org/2000/svg">
<g id="fun2 1" clip-path="url(#clip0)">
<path id="tail" d="M593.59 383.919C607.945 385.36 622.344 382.083 636.196 378.049C663.66 370.05 692.157 357.342 706.394 332.531C711.594 323.47 714.546 313.324 717.451 303.289C723.317 283.031 729.223 262.539 730.167 241.47C731.179 218.291 726.155 195.245 715.586 174.591C714.035 171.471 711.405 169.018 708.185 167.687C702.578 165.483 699.496 168.495 697.048 171.632C682.197 190.666 683.735 217.163 682.494 241.273C681.245 265.44 676.511 289.3 668.438 312.114C665.01 321.792 660.492 331.866 651.788 337.313C646.456 340.649 640.112 341.872 633.931 343.033C624.687 344.769 614.596 346.388 606.309 341.94C597.823 337.386 592.21 325.586 582.418 323.624C572.729 321.683 559.507 331.833 555.182 340.385C543.468 363.547 574.373 381.989 593.59 383.919Z" fill="#FFD180"/>
<g id="Group" opacity="0.1">
<path id="Vector" opacity="0.1" d="M651.788 337.313C646.456 340.649 640.112 341.872 633.931 343.033C627.581 344.225 620.844 345.313 614.554 344.467C622.452 347.76 631.702 346.318 640.245 344.714C646.426 343.553 652.77 342.33 658.102 338.994C666.806 333.547 671.324 323.473 674.752 313.795C682.825 290.982 687.559 267.122 688.808 242.954C690.048 218.844 688.511 192.348 703.362 173.313C705.082 171.109 707.136 169.006 710.138 168.692C709.517 168.302 708.864 167.966 708.185 167.687C702.578 165.483 699.495 168.494 697.048 171.632C682.197 190.666 683.734 217.163 682.494 241.273C681.245 265.44 676.511 289.3 668.438 312.113C665.01 321.792 660.492 331.866 651.788 337.313Z" fill="black"/>
<path id="Vector_2" opacity="0.1" d="M561.496 342.066C565.494 334.162 577.087 324.914 586.471 325.088C585.195 324.414 583.83 323.921 582.418 323.624C572.729 321.683 559.507 331.833 555.182 340.385C544.256 361.989 570.406 379.481 589.569 383.303C571.566 377.38 551.735 361.367 561.496 342.066Z" fill="black"/>
</g>
<path id="Vector_3" opacity="0.1" d="M639.335 255.292L472.649 172.265L448.615 220.516L615.301 303.543L639.335 255.292Z" fill="black"/>
<path id="Vector_4" d="M639.335 255.292L472.649 172.265L450.8 216.13L617.486 299.157L639.335 255.292Z" fill="#F9A826"/>
<path id="Vector_5" d="M579.347 229.266C595.586 229.266 608.75 216.102 608.75 199.863C608.75 183.624 595.586 170.46 579.347 170.46C563.109 170.46 549.944 183.624 549.944 199.863C549.944 216.102 563.109 229.266 579.347 229.266Z" fill="#F9A826"/>
<path id="Vector_6" d="M557.011 46.5434C557.011 46.5434 607.92 60.3444 626.456 81.1337C626.456 81.1337 656.487 55.6445 670.375 62.5626C684.264 69.4807 663.528 122.712 663.528 122.712L645.15 206.01C645.15 206.01 654.707 407.232 525.236 446.75C395.765 486.269 302.997 324.496 332.976 264.311C362.954 204.126 452.994 92.9624 452.994 92.9624C452.994 92.9624 531.505 4.94712 545.376 0.299946C559.247 -4.34722 557.011 46.5434 557.011 46.5434Z" fill="#FFD180"/>
<g id="Group_2" opacity="0.1">
<path id="Vector_7" opacity="0.1" d="M634.443 308.666C642.332 275.037 645.929 240.544 645.15 206.01L642.248 219.164C642.941 249.194 640.324 279.209 634.443 308.666V308.666Z" fill="white"/>
<path id="Vector_8" opacity="0.1" d="M347.482 255.972C377.461 195.787 450.093 106.116 450.093 106.116C450.093 106.116 528.603 18.1009 542.474 13.4538C556.345 8.80651 554.109 59.6971 554.109 59.6971C554.109 59.6971 605.017 73.4982 623.553 94.2877C623.553 94.2877 653.585 68.7985 667.473 75.7164C672.864 78.4016 673.03 88.0694 671.225 98.8882C675.242 83.7505 677.922 66.3217 670.375 62.5625C656.487 55.6447 626.456 81.1338 626.456 81.1338C607.919 60.3443 557.011 46.5433 557.011 46.5433C557.011 46.5433 559.247 -4.34734 545.376 0.299962C531.505 4.94709 452.995 92.9626 452.995 92.9626C452.995 92.9626 380.363 182.633 350.384 242.818C347.676 248.255 346.622 257.698 347.482 255.972Z" fill="white"/>
</g>
<path id="Vector_9" d="M606.933 182.873C612.646 182.873 617.278 178.242 617.278 172.529C617.278 166.816 612.646 162.185 606.933 162.185C601.22 162.185 596.589 166.816 596.589 172.529C596.589 178.242 601.22 182.873 606.933 182.873Z" fill="#58555D"/>
<path id="Vector_10" d="M500.452 129.835C506.165 129.835 510.797 125.203 510.797 119.49C510.797 113.778 506.165 109.146 500.452 109.146C494.739 109.146 490.108 113.778 490.108 119.49C490.108 125.203 494.739 129.835 500.452 129.835Z" fill="#58555D"/>
<path id="Vector_11" d="M565.284 163.34C567.832 158.226 563.678 150.984 556.008 147.163C548.337 143.342 540.054 144.39 537.507 149.504C534.96 154.618 539.113 161.861 546.784 165.681C554.454 169.502 562.737 168.454 565.284 163.34Z" fill="#58555D"/>
<path id="whisker3" d="M635.336 183.85L634.088 188.871L680.364 200.376L681.612 195.354L635.336 183.85Z" fill="#FFD180"/>
<path id="whisker3_2" d="M626.171 202.369L624.814 207.359L675.711 221.199L677.068 216.209L626.171 202.369Z" fill="#FFD180"/>
<path id="whisker1" d="M435.208 55.4204L431.35 58.8597L468.422 100.438L472.28 96.9991L435.208 55.4204Z" fill="#FFD180"/>
<path id="whisker2" d="M409.352 71.2575L406.368 75.4825L461.941 114.72L464.924 110.495L409.352 71.2575Z" fill="#FFD180"/>
<path id="Vector_12" opacity="0.1" d="M463.119 284.847C463.119 284.847 460.441 370.887 415.206 355.799C369.971 340.711 421.429 285.726 421.429 285.726C421.429 285.726 426.755 264.439 417 258.228" fill="black"/>
<path id="Vector_13" opacity="0.1" d="M502.864 302.525C502.864 302.525 431.279 350.334 468.022 380.729C504.764 411.123 524.183 338.362 524.183 338.362C524.183 338.362 539.425 322.577 549.858 327.567" fill="black"/>
<path id="Vector_14" d="M460.304 281.006C460.304 281.006 457.626 367.046 412.391 351.958C367.156 336.869 418.614 281.885 418.614 281.885C418.614 281.885 423.94 260.597 414.185 254.386" fill="#FFD180"/>
<path id="Vector_15" d="M507.254 301.045C507.254 301.045 435.67 348.854 472.412 379.249C509.155 409.644 528.573 336.883 528.573 336.883C528.573 336.883 543.816 321.097 554.249 326.088" fill="#FFD180"/>
<path id="Vector_16" opacity="0.5" d="M406.047 330.708L399.243 344.367L399.974 344.731L406.778 331.072L406.047 330.708Z" fill="#58555D"/>
<path id="Vector_17" opacity="0.5" d="M417.744 336.534L410.94 350.193L411.671 350.557L418.475 336.898L417.744 336.534Z" fill="#58555D"/>
<path id="Vector_18" opacity="0.5" d="M413.566 329.014L404.043 348.133L404.774 348.498L414.297 329.378L413.566 329.014Z" fill="#58555D"/>
<path id="Vector_19" opacity="0.5" d="M483.535 365.655L476.732 379.314L477.463 379.679L484.266 366.019L483.535 365.655Z" fill="#58555D"/>
<path id="Vector_20" opacity="0.5" d="M495.232 371.482L488.429 385.141L489.16 385.505L495.964 371.846L495.232 371.482Z" fill="#58555D"/>
<path id="Vector_21" opacity="0.5" d="M491.055 363.962L481.531 383.081L482.262 383.445L491.786 364.326L491.055 363.962Z" fill="#58555D"/>
<path id="Vector_22" opacity="0.1" d="M510.359 209.906C498.233 203.875 486.648 196.814 475.73 188.801C441.326 163.51 422.805 133.902 422.143 132.817L427.478 126.14C427.633 126.394 448.287 157.548 481.394 181.794C511.867 204.111 570.049 230.948 644.334 227.831L644.711 236.823C590.796 239.085 541.933 225.632 510.359 209.906Z" fill="black"/>
<path id="Vector_23" d="M509.555 215.656L509.396 215.182C510.217 215.028 510.992 214.686 511.659 214.184C512.326 213.681 512.868 213.031 513.242 212.284C513.617 211.537 513.813 210.713 513.816 209.878C513.82 209.043 513.63 208.218 513.261 207.468L513.715 207.258C514.113 208.071 514.319 208.965 514.317 209.871C514.315 210.777 514.104 211.67 513.702 212.481C513.3 213.293 512.717 214.001 511.998 214.551C511.279 215.102 510.443 215.48 509.555 215.656Z" fill="#4D8AF0"/>
<path id="Vector_24" opacity="0.1" d="M509.555 215.656L509.396 215.182C510.217 215.028 510.992 214.686 511.659 214.184C512.326 213.681 512.868 213.031 513.242 212.284C513.617 211.537 513.813 210.713 513.816 209.878C513.82 209.043 513.63 208.218 513.261 207.468L513.715 207.258C514.113 208.071 514.319 208.965 514.317 209.871C514.315 210.777 514.104 211.67 513.702 212.481C513.3 213.293 512.717 214.001 511.998 214.551C511.279 215.102 510.443 215.48 509.555 215.656Z" fill="black"/>
<path id="Vector_25" d="M645.226 226.041C570.941 229.157 512.759 202.321 482.285 180.004C449.179 155.758 428.524 124.603 428.37 124.35L420.687 129.038C421.349 130.124 442.218 161.719 476.621 187.011C487.539 195.024 499.125 202.085 511.251 208.115C542.824 223.842 591.688 237.295 645.603 235.033L645.226 226.041ZM513.042 208.258C512.865 208.17 512.718 208.031 512.62 207.86C512.522 207.688 512.477 207.491 512.491 207.294C512.504 207.096 512.576 206.908 512.697 206.751C512.818 206.595 512.983 206.478 513.17 206.415C513.358 206.352 513.56 206.346 513.751 206.398C513.942 206.45 514.113 206.558 514.243 206.707C514.372 206.856 514.455 207.04 514.48 207.237C514.505 207.433 514.471 207.632 514.383 207.809C514.325 207.927 514.244 208.031 514.144 208.118C514.045 208.204 513.93 208.27 513.806 208.311C513.681 208.353 513.55 208.37 513.419 208.361C513.288 208.352 513.16 208.317 513.042 208.258Z" fill="#F55F44"/>
<path id="Vector_26" opacity="0.1" d="M497.849 216.331C496.667 218.705 496.476 221.452 497.318 223.966C498.161 226.481 499.968 228.558 502.342 229.741V229.741C504.716 230.923 507.462 231.114 509.977 230.272C512.492 229.429 514.569 227.622 515.751 225.248V225.248C516.934 222.874 517.125 220.128 516.282 217.613C515.44 215.098 513.633 213.021 511.259 211.839V211.839C508.885 210.656 506.138 210.465 503.624 211.308C501.109 212.15 499.032 213.957 497.849 216.331V216.331ZM509.03 216.314C508.734 216.167 508.49 215.936 508.326 215.65C508.162 215.364 508.087 215.035 508.11 214.707C508.133 214.378 508.253 214.063 508.454 213.802C508.656 213.542 508.931 213.347 509.243 213.242C509.556 213.137 509.892 213.127 510.21 213.214C510.528 213.301 510.814 213.48 511.03 213.728C511.246 213.977 511.384 214.284 511.426 214.611C511.468 214.938 511.411 215.27 511.264 215.565C511.067 215.961 510.721 216.262 510.302 216.403C509.883 216.543 509.425 216.511 509.03 216.314L509.03 216.314Z" fill="url(#paint0_linear)"/>
<path id="Vector_27" d="M498.744 216.777C497.68 218.913 497.508 221.385 498.266 223.649C499.025 225.912 500.651 227.781 502.788 228.846C504.924 229.91 507.396 230.082 509.659 229.323C511.923 228.565 513.792 226.939 514.856 224.802V224.802C515.92 222.666 516.092 220.194 515.334 217.931C514.576 215.667 512.95 213.798 510.813 212.734V212.734C508.676 211.669 506.205 211.498 503.941 212.256C501.678 213.014 499.809 214.64 498.744 216.777V216.777ZM508.807 216.762C508.541 216.629 508.321 216.421 508.173 216.164C508.026 215.906 507.958 215.611 507.979 215.315C508 215.019 508.107 214.736 508.289 214.501C508.471 214.266 508.718 214.091 508.999 213.997C509.28 213.902 509.583 213.894 509.869 213.972C510.156 214.05 510.412 214.211 510.607 214.434C510.802 214.658 510.926 214.935 510.963 215.229C511.001 215.523 510.95 215.822 510.818 216.088C510.73 216.264 510.609 216.421 510.46 216.551C510.311 216.68 510.139 216.779 509.952 216.841C509.765 216.904 509.568 216.929 509.371 216.915C509.175 216.902 508.983 216.849 508.807 216.762V216.762Z" fill="#4D8AF0"/>
<path id="Vector_28" d="M509.238 215.498C508.844 214.683 508.642 213.788 508.648 212.883C508.654 211.977 508.868 211.085 509.274 210.275C509.679 209.466 510.266 208.76 510.987 208.212C511.709 207.665 512.546 207.291 513.435 207.119L513.541 207.607C512.721 207.765 511.948 208.11 511.283 208.616C510.618 209.122 510.079 209.775 509.709 210.524C509.338 211.272 509.145 212.097 509.146 212.932C509.147 213.768 509.341 214.591 509.712 215.34L509.238 215.498Z" fill="#4D8AF0"/>
<path id="Vector_29" d="M632.023 222.836C472.683 233.96 435.11 131.456 435.11 131.456L632.023 222.836Z" fill="#FFD180"/>
<path id="Vector_30" d="M216.256 578.336H195.377V754.857C195.377 754.857 330.141 798.513 461.109 754.857L457 578.336H216.256Z" fill="#3F3D56"/>
<path id="Vector_31" d="M326.345 599.215C398.676 599.215 457.313 590.292 457.313 579.285C457.313 568.278 398.676 559.355 326.345 559.355C254.013 559.355 195.377 568.278 195.377 579.285C195.377 590.292 254.013 599.215 326.345 599.215Z" fill="#3F3D56"/>
<path id="Vector_32" opacity="0.1" d="M326 599C398.349 599 457 590.046 457 579C457 567.954 398.349 559 326 559C253.651 559 195 567.954 195 579C195 590.046 253.651 599 326 599Z" fill="black"/>
<path id="petal2" d="M478.586 367.432C445.548 489.564 332.382 565.203 332.382 565.203C332.382 565.203 272.783 442.828 305.822 320.696C338.861 198.565 452.026 122.926 452.026 122.926C452.026 122.926 511.625 245.301 478.586 367.432Z" fill="url(#paint1_linear)"/>
<path id="Vector_33" d="M178.025 367.432C211.064 489.564 324.229 565.203 324.229 565.203C324.229 565.203 383.828 442.828 350.789 320.696C317.751 198.565 204.585 122.926 204.585 122.926C204.585 122.926 144.986 245.301 178.025 367.432Z" fill="url(#paint2_linear)"/>
<path id="petal1" d="M226.573 341.185C317.232 429.438 328.306 565.103 328.306 565.103C328.306 565.103 192.392 557.682 101.732 469.429C11.0734 381.176 0 245.511 0 245.511C0 245.511 135.914 252.932 226.573 341.185Z" fill="url(#paint3_linear)"/>
<path id="Vector_34" d="M430.038 341.185C339.379 429.438 328.306 565.103 328.306 565.103C328.306 565.103 464.22 557.682 554.879 469.429C645.538 381.176 656.611 245.511 656.611 245.511C656.611 245.511 520.697 252.932 430.038 341.185Z" fill="url(#paint4_linear)"/>
</g>
<defs>
<linearGradient id="paint0_linear" x1="502.342" y1="229.741" x2="511.259" y2="211.839" gradientUnits="userSpaceOnUse">
<stop stop-color="white"/>
<stop offset="1"/>
</linearGradient>
<linearGradient id="paint1_linear" x1="392.204" y1="122.926" x2="392.204" y2="565.203" gradientUnits="userSpaceOnUse">
<stop stop-color="#923CB5"/>
<stop offset="1" stop-opacity="0.74"/>
</linearGradient>
<linearGradient id="paint2_linear" x1="264.407" y1="122.926" x2="264.407" y2="565.203" gradientUnits="userSpaceOnUse">
<stop stop-color="#F5D020"/>
<stop offset="1" stop-color="#F53803" stop-opacity="0.74"/>
</linearGradient>
<linearGradient id="paint3_linear" x1="164.153" y1="245.511" x2="164.153" y2="565.103" gradientUnits="userSpaceOnUse">
<stop stop-color="#923CB5"/>
<stop offset="1" stop-opacity="0.74"/>
</linearGradient>
<linearGradient id="paint4_linear" x1="492.459" y1="245.511" x2="492.459" y2="565.103" gradientUnits="userSpaceOnUse">
<stop stop-color="#F5D020"/>
<stop offset="1" stop-color="#F53803" stop-opacity="0.74"/>
</linearGradient>
<clipPath id="clip0">
<rect width="802.214" height="825.594" fill="white"/>
</clipPath>
</defs>
</svg>
