<svg id="Layer_5" enable-background="new 0 0 64 64" height="512" viewBox="0 0 64 64" width="512" xmlns="http://www.w3.org/2000/svg"><g><path d="m21.923 17h-12.363c-1.496 3.04-2.399 6.423-2.541 10h13.99c.052-3.569.371-6.94.914-10z"/><path d="m39.659 15c-1.696-7.481-4.745-12-7.659-12s-5.963 4.519-7.659 12z"/><path d="m27.361 3.437c-7.06 1.33-13.077 5.637-16.7 11.563h11.655c1.117-5.098 2.884-9.155 5.045-11.563z"/><path d="m42.99 27h13.99c-.142-3.577-1.044-6.96-2.541-10h-12.362c.543 3.06.862 6.431.913 10z"/><path d="m23.01 27h17.98c-.052-3.672-.385-7.032-.924-10h-16.132c-.539 2.968-.873 6.328-.924 10z"/><path d="m53.339 15c-3.624-5.926-9.641-10.233-16.7-11.563 2.161 2.408 3.928 6.465 5.045 11.563z"/><path d="m8 42c1.105 0 2-.895 2-2v-2c0-1.105.895-2 2-2s2 .895 2 2v8c0 1.105.895 2 2 2s2-.895 2-2v-12c0-1.105.895-2 2-2s2 .895 2 2v6c0 1.105.895 2 2 2s2-.895 2-2v-2c0-1.105.895-2 2-2s2 .895 2 2v10c0 1.105.895 2 2 2s2-.895 2-2v-12c0-1.105.895-2 2-2s2 .895 2 2v6c0 1.105.895 2 2 2s2-.895 2-2v-2c0-1.105.895-2 2-2s2 .895 2 2v6c0 1.105.895 2 2 2s2-.895 2-2v-10c0-1.105.895-2 2-2s2 .895 2 2v4c0 1.105.895 2 2 2s2-.895 2-2v-11h-52v11c0 1.105.895 2 2 2z"/><path d="m60 58h-16c-1.105 0-2-.895-2-2s-.895-2-2-2h-9v-2.142c-1.721-.447-3-2-3-3.858v-3h-2v7c0 1.105-.895 2-2 2h-20c-1.105 0-2 .895-2 2s.895 2 2 2h11c1.105 0 2 .895 2 2s.895 2 2 2h41c1.105 0 2-.895 2-2s-.895-2-2-2z"/></g></svg>